<svg width="24" height="24" viewBox="0 0 24 24" fill="none" xmlns="http://www.w3.org/2000/svg">
<path d="M8.86719 2.6543C10.2681 1.56494 12.5161 1.47958 14.0195 2.43359L14.1631 2.5293L20.3428 6.85938L20.3438 6.86035C20.8578 7.21888 21.3399 7.80185 21.6934 8.47852C22.0468 9.15522 22.25 9.88374 22.25 10.5098V17.79C22.25 20.2445 20.2532 22.25 17.79 22.25H6.20996C3.74753 22.25 1.75016 20.2453 1.75 17.7803V10.3701C1.75 9.78465 1.93357 9.0927 2.25391 8.44043C2.57412 7.7884 3.01035 7.21716 3.47656 6.85449H3.47754L8.86719 2.6543ZM11.5059 2.27637C10.674 2.29442 9.82026 2.54108 9.17285 3.0459L3.78223 7.24512L3.78027 7.24707C3.34867 7.58749 2.97224 8.11385 2.70508 8.65625C2.43822 9.1981 2.25 9.81832 2.25 10.3701V17.7803C2.25016 19.9644 4.02206 21.75 6.20996 21.75H17.79C19.9761 21.75 21.75 19.9761 21.75 17.79V10.5098C21.75 9.92447 21.5449 9.2715 21.25 8.70605C20.956 8.14252 20.5387 7.60204 20.0557 7.27051H20.0566L13.877 2.94043C13.2028 2.46745 12.3377 2.2584 11.5059 2.27637Z" stroke="#737373"/>
<path d="M12 14.75C12.1339 14.75 12.25 14.8661 12.25 15V18C12.25 18.1339 12.1339 18.25 12 18.25C11.8661 18.25 11.75 18.1339 11.75 18V15C11.75 14.8661 11.8661 14.75 12 14.75Z" fill="#737373" stroke="#737373"/>
</svg>
