<svg width="20" height="20" viewBox="0 0 20 20" fill="none" xmlns="http://www.w3.org/2000/svg">
<path fill-rule="evenodd" clip-rule="evenodd" d="M9.78185 1.6665C14.2568 1.6665 17.8969 5.3065 17.8969 9.7815C17.8969 11.8928 17.0866 13.8184 15.7607 15.2636L18.3697 17.8671C18.6139 18.1113 18.6147 18.5063 18.3705 18.7504C18.2488 18.8738 18.088 18.9346 17.928 18.9346C17.7689 18.9346 17.6088 18.8738 17.4863 18.7521L14.8459 16.119C13.4569 17.2314 11.6957 17.8973 9.78185 17.8973C5.30685 17.8973 1.66602 14.2565 1.66602 9.7815C1.66602 5.3065 5.30685 1.6665 9.78185 1.6665ZM9.78185 2.9165C5.99602 2.9165 2.91602 5.99567 2.91602 9.7815C2.91602 13.5673 5.99602 16.6473 9.78185 16.6473C13.5668 16.6473 16.6469 13.5673 16.6469 9.7815C16.6469 5.99567 13.5668 2.9165 9.78185 2.9165Z" fill="#171717"/>
</svg>
