<svg width="12" height="12" viewBox="0 0 12 12" fill="none" xmlns="http://www.w3.org/2000/svg">
<path d="M11.437 2.625V5.625C11.437 5.77418 11.3777 5.91726 11.2722 6.02275C11.1667 6.12824 11.0237 6.1875 10.8745 6.1875C10.7253 6.1875 10.5822 6.12824 10.4767 6.02275C10.3713 5.91726 10.312 5.77418 10.312 5.625V3.98438L6.77246 7.52437C6.7202 7.57682 6.65811 7.61842 6.58973 7.64681C6.52136 7.6752 6.44806 7.68982 6.37402 7.68982C6.29999 7.68982 6.22669 7.6752 6.15831 7.64681C6.08994 7.61842 6.02784 7.57682 5.97558 7.52437L4.49949 6.04688L1.52246 9.02297C1.41679 9.12864 1.27347 9.18801 1.12402 9.18801C0.97458 9.18801 0.831257 9.12864 0.725585 9.02297C0.619913 8.9173 0.560547 8.77397 0.560547 8.62453C0.560547 8.47509 0.619913 8.33177 0.725585 8.22609L4.10058 4.85109C4.15284 4.79865 4.21494 4.75705 4.28331 4.72866C4.35169 4.70026 4.42499 4.68565 4.49902 4.68565C4.57306 4.68565 4.64636 4.70026 4.71473 4.72866C4.78311 4.75705 4.8452 4.79865 4.89746 4.85109L6.37449 6.32812L9.51512 3.1875H7.87449C7.72531 3.1875 7.58223 3.12824 7.47674 3.02275C7.37125 2.91726 7.31199 2.77418 7.31199 2.625C7.31199 2.47582 7.37125 2.33274 7.47674 2.22725C7.58223 2.12176 7.72531 2.0625 7.87449 2.0625H10.8745C11.0237 2.0625 11.1667 2.12176 11.2722 2.22725C11.3777 2.33274 11.437 2.47582 11.437 2.625Z" fill="#0067FF"/>
</svg>
