<svg width="24" height="24" viewBox="0 0 24 24" fill="none" xmlns="http://www.w3.org/2000/svg">
<path d="M12 0.625C9.75024 0.625 7.551 1.29213 5.68039 2.54203C3.80978 3.79193 2.35182 5.56847 1.49088 7.64698C0.629929 9.72549 0.404666 12.0126 0.843573 14.2192C1.28248 16.4257 2.36584 18.4525 3.95667 20.0433C5.54749 21.6342 7.57432 22.7175 9.78085 23.1564C11.9874 23.5953 14.2745 23.3701 16.353 22.5091C18.4315 21.6482 20.2081 20.1902 21.458 18.3196C22.7079 16.449 23.375 14.2498 23.375 12C23.3718 8.98414 22.1724 6.09271 20.0398 3.96018C17.9073 1.82764 15.0159 0.628185 12 0.625ZM12 21.625C10.0964 21.625 8.23546 21.0605 6.65264 20.0029C5.06982 18.9453 3.83616 17.4421 3.10766 15.6833C2.37917 13.9246 2.18856 11.9893 2.55995 10.1223C2.93133 8.25519 3.84802 6.54018 5.1941 5.1941C6.54018 3.84802 8.25519 2.93132 10.1223 2.55994C11.9893 2.18856 13.9246 2.37917 15.6833 3.10766C17.4421 3.83615 18.9453 5.06981 20.0029 6.65264C21.0605 8.23546 21.625 10.0964 21.625 12C21.6221 14.5518 20.6071 16.9983 18.8027 18.8027C16.9983 20.6071 14.5518 21.6221 12 21.625ZM16.375 7.625V16.375C16.375 16.6071 16.2828 16.8296 16.1187 16.9937C15.9546 17.1578 15.7321 17.25 15.5 17.25C15.2679 17.25 15.0454 17.1578 14.8813 16.9937C14.7172 16.8296 14.625 16.6071 14.625 16.375V12.875H9.375V16.375C9.375 16.6071 9.28282 16.8296 9.11872 16.9937C8.95463 17.1578 8.73207 17.25 8.5 17.25C8.26794 17.25 8.04538 17.1578 7.88129 16.9937C7.71719 16.8296 7.625 16.6071 7.625 16.375V7.625C7.625 7.39294 7.71719 7.17038 7.88129 7.00628C8.04538 6.84219 8.26794 6.75 8.5 6.75C8.73207 6.75 8.95463 6.84219 9.11872 7.00628C9.28282 7.17038 9.375 7.39294 9.375 7.625V11.125H14.625V7.625C14.625 7.39294 14.7172 7.17038 14.8813 7.00628C15.0454 6.84219 15.2679 6.75 15.5 6.75C15.7321 6.75 15.9546 6.84219 16.1187 7.00628C16.2828 7.17038 16.375 7.39294 16.375 7.625Z" fill="#0067FF"/>
</svg>
