<svg width="22" height="22" viewBox="0 0 22 22" fill="none" xmlns="http://www.w3.org/2000/svg">
<path d="M21.3112 0.688755C21.1226 0.500254 20.8871 0.365444 20.629 0.298212C20.371 0.23098 20.0997 0.233756 19.843 0.306255H19.829L1.83461 5.76625C1.54248 5.85045 1.28283 6.02142 1.09007 6.25651C0.897302 6.49161 0.780525 6.77973 0.75521 7.08269C0.729895 7.38565 0.797238 7.68916 0.948314 7.95298C1.09939 8.21681 1.32707 8.4285 1.60117 8.56001L9.56242 12.4375L13.4343 20.3941C13.5547 20.6511 13.7462 20.8682 13.9861 21.0199C14.226 21.1716 14.5042 21.2514 14.788 21.25C14.8312 21.25 14.8743 21.2481 14.9174 21.2444C15.2201 21.2199 15.5081 21.1034 15.7427 20.9105C15.9773 20.7176 16.1473 20.4576 16.2299 20.1653L21.6862 2.17094C21.6862 2.16626 21.6862 2.16157 21.6862 2.15688C21.7596 1.90091 21.7636 1.63 21.6977 1.37199C21.6318 1.11397 21.4984 0.878152 21.3112 0.688755ZM14.7965 19.7359L14.7918 19.7491V19.7425L11.0362 12.0269L15.5362 7.52688C15.6709 7.38508 15.7449 7.19627 15.7424 7.0007C15.7399 6.80513 15.6611 6.61827 15.5228 6.47997C15.3845 6.34167 15.1976 6.26287 15.002 6.26036C14.8065 6.25786 14.6177 6.33185 14.4759 6.46657L9.97586 10.9666L2.25742 7.21094H2.25086H2.26399L20.2499 1.75001L14.7965 19.7359Z" fill="white"/>
</svg>
